# xmcd
#
# Track frame offsets: 
#        150
#        11990
#        31748
#        44645
#        56951
#        67597
#        77995
#        91482
#        106115
#        119315
#        133142
#        144322
#        155782
#        168909
#        179352
#        190303
#        205303
#        218137
#        229612
#        240498
#        251751
#        264857
#        276612
#        286912
#        302161
#        314398
#
# Disc length: 4341 seconds
#
# Revision: 2
# Processed by: cddbd v1.5.2PL0 Copyright (c) Steve Scherf et al.
# Submitted via: ExactAudioCopyFreeDBPlugin 1.0
#
DISCID=7f10f31a
DTITLE=The "5" Royales - Soul and Swagger:  The Complete "5" Royales (19
DTITLE=51-1967)
DYEAR=2014
DGENRE=Rhythm and Blues
TTITLE0=It Hurts Inside
TTITLE1=I'm With You
TTITLE2=Don't Give More Than You Can Take
TTITLE3=Why
TTITLE4=(Something Moves Me) Within My Heart
TTITLE5=Solid Rock
TTITLE6=I'm A Cool Teenager
TTITLE7=I'm A Cool Teenager (undubbed version)
TTITLE8=Now Baby Don't Do It
TTITLE9=Everybody Knows
TTITLE10=Please, Please Please
TTITLE11=I Got To Know
TTITLE12=Dedicated To The One I Love (alt. mix)
TTITLE13=If You Don't Need Me
TTITLE14=I'm Gonna Tell Them
TTITLE15=Raindrops Keep A-Fallin'
TTITLE16=Please, Please, Be Mine
TTITLE17=Not Going To Cry
TTITLE18=Take Me With You Baby
TTITLE19=Here It 'Tis Right Here
TTITLE20=Jail Bird
TTITLE21=Much In Need
TTITLE22=They Don't Know
TTITLE23=Send Me Somebody
TTITLE24=Come On Let's Have A Good Time
TTITLE25=Just Can't Do Me This Way
EXTD=
EXTT0=
EXTT1=
EXTT2=
EXTT3=
EXTT4=
EXTT5=
EXTT6=
EXTT7=
EXTT8=
EXTT9=
EXTT10=
EXTT11=
EXTT12=
EXTT13=
EXTT14=
EXTT15=
EXTT16=
EXTT17=
EXTT18=
EXTT19=
EXTT20=
EXTT21=
EXTT22=
EXTT23=
EXTT24=
EXTT25=
PLAYORDER=
